<svg height="600" node-id="1" sillyvg="true" template-height="600" template-width="600" version="1.1" viewBox="0 0 600 600" width="600" xmlns="http://www.w3.org/2000/svg" xmlns:xlink="http://www.w3.org/1999/xlink"><defs node-id="89"></defs><path d="M 0.00 0.00 L 600.00 0.00 L 600.00 600.00 L 0.00 600.00 Z" fill="#ffffff" fill-rule="nonzero" node-id="91" stroke="none" target-height="600" target-width="600" target-x="0" target-y="0"></path><g node-id="258"><g node-id="259"><path d="M 307.77 140.54 C 363.04 140.54 418.31 140.56 473.58 140.48 C 475.68 140.48 476.07 140.95 476.07 142.99 C 476.01 247.84 476.01 352.68 476.06 457.53 C 476.06 459.44 475.87 460.11 473.63 460.10 C 363.09 460.02 252.56 460.03 142.02 460.09 C 140.03 460.09 139.67 459.67 139.67 457.72 C 139.73 352.78 139.73 247.83 139.65 142.89 C 139.65 140.58 140.40 140.49 142.25 140.49 C 197.42 140.55 252.60 140.54 307.77 140.54 Z" fill="#ffffff" fill-rule="nonzero" group-id="1,2" node-id="96" stroke="none" target-height="319.63" target-width="336.42" target-x="139.65" target-y="140.48"></path><path d="M 417.80 237.99 C 420.09 239.46 421.12 241.80 422.58 243.96 C 424.49 246.78 425.87 249.77 427.23 252.77 C 429.18 257.07 431.78 261.12 432.51 265.95 C 432.77 267.65 433.43 269.18 434.60 270.71 C 435.95 272.48 435.45 275.16 436.21 277.44 C 439.39 287.03 440.15 297.05 440.65 307.08 C 441.01 314.15 440.17 321.13 439.35 328.14 C 438.64 334.22 437.70 340.25 435.79 346.01 C 434.21 350.77 432.73 355.66 430.04 359.97 C 429.22 361.29 429.62 362.72 429.01 364.07 C 426.35 369.89 423.54 375.65 420.08 381.00 C 415.05 388.78 409.45 396.22 403.07 402.95 C 398.42 407.86 393.17 412.20 388.18 416.80 C 388.11 416.87 388.05 416.98 387.97 416.99 C 382.42 417.91 380.17 423.74 375.21 425.56 C 374.23 425.92 373.55 427.38 372.21 426.32 C 371.64 427.83 367.99 425.48 368.96 428.92 C 366.74 430.22 364.62 431.76 362.27 432.76 C 356.30 435.30 350.17 437.49 344.21 440.04 C 342.41 440.81 340.58 441.16 338.73 441.59 C 335.60 442.33 332.45 443.75 329.34 443.65 C 325.87 443.54 323.06 445.26 319.84 445.70 C 316.44 446.17 313.03 446.44 309.64 446.60 C 299.63 447.08 289.62 447.18 279.66 445.62 C 270.33 444.16 261.04 442.59 252.12 439.38 C 251.29 439.08 250.41 439.05 250.32 437.92 C 250.29 437.56 250.32 437.19 249.73 437.26 C 244.81 437.84 241.01 435.18 237.02 432.93 C 233.90 431.17 230.76 429.43 227.28 428.41 C 226.29 428.12 225.20 427.82 224.99 426.55 C 224.67 424.71 223.18 426.29 222.22 425.55 C 217.97 422.27 213.46 419.33 209.08 416.22 C 208.00 415.45 206.90 414.57 208.28 413.06 C 209.58 411.64 207.69 411.47 207.39 410.25 C 206.61 411.53 206.14 412.42 206.42 413.96 C 198.68 406.94 190.83 400.60 185.20 392.05 C 182.17 387.45 178.40 383.38 175.70 378.54 C 175.11 377.48 174.61 376.76 175.82 375.92 C 176.38 375.52 176.37 375.05 176.04 374.44 C 175.51 373.44 175.05 374.26 174.76 374.51 C 173.75 375.40 173.51 374.95 173.00 373.92 C 169.92 367.73 166.87 361.54 164.51 355.02 C 163.01 350.87 161.09 346.88 160.22 342.50 C 158.26 332.65 156.32 322.83 156.26 312.69 C 156.20 303.51 156.86 294.47 158.48 285.43 C 159.57 279.39 160.46 273.23 162.90 267.67 C 166.48 259.50 169.52 251.11 173.93 243.25 C 178.52 235.08 184.42 227.98 190.06 220.66 C 193.02 216.82 196.99 213.78 200.47 210.34 C 202.32 208.51 201.70 211.67 202.93 211.33 C 202.77 209.49 202.68 207.50 204.89 206.53 C 205.32 205.57 206.02 205.00 207.09 204.94 C 211.01 201.68 215.30 198.98 219.53 196.15 C 225.78 191.97 232.37 188.42 239.32 185.76 C 245.65 183.34 251.50 179.61 258.12 178.22 C 261.19 177.58 263.70 175.38 266.99 175.59 C 267.85 175.64 268.64 174.98 269.59 175.80 C 270.25 176.36 271.26 176.07 271.86 175.26 C 272.41 174.51 273.21 173.94 274.02 174.02 C 279.73 174.56 285.06 172.18 290.82 172.15 C 296.24 172.13 301.77 171.80 307.24 171.76 C 310.26 171.74 313.30 172.30 316.32 172.68 C 317.39 172.82 318.68 172.83 318.83 174.42 C 318.90 175.11 319.39 175.08 319.88 174.88 C 324.04 173.14 330.29 173.89 334.40 176.24 C 335.74 177.01 337.63 176.09 339.22 176.83 C 340.06 177.22 341.12 177.18 341.43 178.34 C 341.48 178.53 341.19 178.89 341.69 178.92 C 348.06 179.29 353.23 182.53 358.77 185.29 C 362.61 187.20 366.26 189.56 370.28 191.11 C 371.49 191.57 372.48 192.24 373.45 192.98 C 375.13 194.28 376.53 195.89 378.63 196.70 C 380.55 197.44 380.89 199.67 382.09 201.11 C 382.34 202.28 381.78 203.21 381.04 203.94 C 375.41 209.54 370.47 215.77 364.90 221.43 C 362.91 223.46 361.40 225.93 359.50 228.11 C 355.22 233.01 350.40 237.42 346.40 242.57 C 345.34 243.51 344.41 244.55 343.64 245.75 C 343.49 245.96 343.32 246.15 343.14 246.33 C 342.19 247.19 341.39 248.16 340.82 249.31 C 340.11 251.07 338.71 252.40 337.32 253.42 C 331.95 257.37 330.12 263.13 328.72 269.17 C 328.37 270.38 328.21 271.64 327.91 272.86 C 327.94 276.38 324.78 278.74 324.60 282.24 C 324.43 285.47 321.48 287.92 321.84 291.36 C 321.82 291.94 321.73 292.51 321.52 293.05 C 319.37 296.52 318.95 300.56 317.86 304.38 C 317.68 304.72 317.33 304.94 317.13 305.25 C 313.10 311.42 307.15 311.51 300.86 310.32 C 299.36 310.04 297.31 310.49 296.59 308.65 C 295.81 306.68 297.55 305.52 298.71 304.33 C 300.07 302.93 300.08 301.02 300.83 299.41 C 302.00 297.07 301.07 295.08 299.81 293.14 C 298.40 291.79 297.18 289.88 294.87 291.95 C 294.24 292.52 293.28 292.27 293.23 291.20 C 293.15 289.12 291.93 290.03 291.10 290.38 C 288.59 291.43 286.95 294.75 287.27 297.91 C 287.43 300.62 285.66 303.21 286.84 306.03 C 287.12 306.71 286.38 307.19 285.60 307.24 C 280.08 307.61 273.45 305.67 270.41 300.09 C 269.83 299.02 269.95 298.69 270.89 298.15 C 273.14 296.87 275.10 295.39 273.73 292.31 C 273.52 291.83 273.71 291.27 274.23 291.13 C 278.20 290.10 278.44 286.72 279.08 283.58 C 279.16 283.20 279.31 282.85 279.49 282.52 C 280.91 280.36 278.81 279.39 277.72 278.78 C 276.41 278.05 275.57 279.59 275.16 280.76 C 274.37 282.99 273.70 285.26 272.67 287.40 C 272.13 288.84 271.36 290.17 270.57 291.48 C 268.25 295.33 268.09 299.42 269.05 303.67 C 269.13 304.05 269.14 304.56 269.42 304.73 C 271.47 306.03 272.38 308.41 274.27 309.81 C 276.22 311.25 278.23 311.63 280.06 309.53 C 280.72 309.51 281.10 309.89 281.20 310.48 C 281.45 311.96 282.15 311.41 282.86 310.89 C 285.11 311.21 287.29 311.76 289.60 310.65 C 290.44 310.24 291.55 311.55 292.53 312.10 C 293.36 312.62 294.32 312.87 295.15 313.36 C 302.00 317.64 312.30 316.58 318.55 310.95 C 319.26 310.31 319.89 309.59 320.61 308.97 C 323.82 306.97 327.59 306.43 331.05 305.05 C 339.30 301.75 347.46 298.20 355.91 295.41 C 358.78 294.46 361.27 292.46 364.54 292.50 C 365.65 292.51 366.09 290.92 367.03 290.24 C 371.24 287.20 374.23 283.01 377.63 279.18 C 379.92 276.60 382.40 274.02 385.09 271.74 C 385.31 271.55 385.64 271.43 385.75 271.20 C 387.72 267.29 391.49 264.93 394.08 261.52 C 396.37 258.51 398.73 255.53 401.89 253.22 C 406.32 249.98 409.55 245.48 413.23 241.46 C 414.55 240.03 415.63 238.29 417.80 237.99 Z" fill="#f5c520" fill-rule="nonzero" group-id="1,2" node-id="98" stroke="none" target-height="275.44" target-width="284.81" target-x="156.2" target-y="171.74"></path><path d="M 345.83 242.31 C 350.51 236.46 356.04 231.36 360.93 225.73 C 363.51 222.76 365.66 219.29 368.54 216.57 C 372.86 212.49 375.86 207.21 380.61 203.54 C 381.31 203.00 381.60 201.95 382.08 201.13 C 386.63 195.56 391.65 190.39 396.60 185.22 C 399.95 181.72 402.80 177.77 406.19 174.28 C 409.57 170.81 412.52 166.53 415.60 162.57 C 417.61 159.99 420.37 157.99 422.43 155.44 C 423.85 153.68 425.94 152.74 426.99 150.35 C 428.73 146.40 432.08 145.63 436.24 147.29 C 437.61 149.94 440.30 151.31 442.30 153.34 C 443.75 154.82 444.90 156.88 447.24 157.35 C 447.78 157.87 448.32 158.40 448.85 158.92 C 448.91 160.92 450.53 160.97 451.88 161.36 C 452.21 161.50 452.44 161.72 452.39 162.12 C 454.08 164.03 456.11 165.61 457.70 167.63 C 462.25 170.57 465.48 175.07 470.02 178.01 C 470.77 178.50 470.49 178.81 470.22 179.36 C 468.27 183.27 465.30 186.42 461.99 189.05 C 460.67 190.10 460.61 191.49 459.57 192.50 C 455.08 196.90 451.08 201.79 446.81 206.40 C 443.28 210.22 439.69 214.13 436.33 218.18 C 432.84 222.38 429.00 226.39 425.08 230.26 C 422.83 232.47 421.55 235.77 418.06 236.66 C 417.87 236.71 417.87 237.54 417.78 238.00 C 413.36 242.06 409.61 246.77 405.45 251.08 C 404.08 252.50 402.45 253.63 400.93 254.85 C 398.41 256.88 396.53 259.73 394.44 262.27 C 393.11 263.88 392.58 266.36 389.79 266.29 C 389.36 266.28 389.08 266.65 389.10 267.05 C 389.18 269.63 387.08 270.60 385.63 272.18 C 382.99 275.07 380.26 277.89 377.61 280.77 C 374.34 284.32 370.88 287.78 367.38 291.14 C 364.40 294.00 360.85 293.71 357.76 295.22 C 352.08 297.99 346.08 300.36 340.07 302.30 C 333.66 304.37 327.84 307.97 321.15 309.18 C 318.63 309.94 318.19 308.09 317.57 306.39 C 317.28 305.60 318.20 304.78 317.44 304.04 C 318.20 300.23 318.56 296.29 321.08 293.06 C 321.81 292.63 322.65 293.09 323.55 292.90 C 322.80 292.15 321.86 292.10 321.31 291.42 C 320.61 289.72 321.30 288.10 322.07 286.78 C 323.53 284.29 324.00 281.58 324.67 278.88 C 324.96 277.71 324.99 276.18 326.71 275.74 C 327.89 275.44 327.23 274.88 326.73 274.36 C 325.92 273.51 326.84 273.27 327.33 272.90 C 328.33 271.73 330.28 270.76 328.17 268.93 C 329.55 262.99 330.98 257.14 336.52 253.34 C 338.15 252.22 339.25 250.34 340.59 248.81 C 341.76 248.14 342.45 247.08 343.00 245.90 L 343.01 245.96 C 344.33 245.01 345.28 243.81 345.83 242.31 Z" fill="#dba3c8" fill-rule="nonzero" group-id="1,2" node-id="100" stroke="none" target-height="164.31" target-width="153.48999" target-x="317.28" target-y="145.63"></path><path d="M 173.66 212.52 C 174.49 214.76 176.89 215.97 177.22 218.78 C 177.33 219.70 180.05 220.95 181.17 222.63 C 181.98 223.84 182.33 224.94 181.46 226.01 C 180.52 227.17 179.79 228.44 177.57 228.06 C 171.88 227.09 166.25 225.41 160.35 225.91 C 157.71 226.13 160.04 224.00 159.05 223.27 C 158.29 225.22 157.29 226.64 154.68 226.32 C 153.35 226.16 151.89 227.31 150.45 227.71 C 149.33 228.02 148.00 229.57 147.15 228.37 C 146.42 227.35 147.20 225.67 147.56 224.27 C 149.13 218.14 149.64 212.12 147.36 205.89 C 145.81 201.66 143.48 198.15 140.30 194.74 C 143.73 194.76 146.41 196.72 149.50 196.52 C 152.05 197.59 154.76 197.57 157.43 197.39 C 158.33 197.33 158.85 197.53 159.42 198.04 C 160.27 198.45 160.81 198.05 161.43 197.47 C 162.12 196.82 159.96 196.03 161.64 195.53 C 163.37 195.01 165.05 194.27 166.80 193.85 C 167.84 193.60 167.91 194.64 168.03 195.39 C 168.58 198.78 169.33 202.11 170.65 205.30 C 170.93 205.98 171.31 207.20 171.04 207.42 C 167.84 209.98 172.26 208.60 172.10 209.52 C 171.34 211.19 172.66 211.77 173.66 212.52 Z" fill="#434a9d" fill-rule="nonzero" group-id="1,2" node-id="102" stroke="none" target-height="35.97" target-width="42.03" target-x="140.3" target-y="193.6"></path><path d="M 207.08 204.95 C 206.35 205.48 205.61 206.01 204.88 206.54 C 201.12 202.25 197.04 198.39 191.15 197.31 C 187.49 196.64 183.79 196.26 180.04 196.35 C 176.66 196.43 175.89 195.19 177.83 192.40 C 181.00 187.85 183.03 182.97 183.79 177.45 C 184.19 174.59 183.36 171.96 183.13 169.22 C 183.07 168.57 182.62 167.79 183.23 167.35 C 183.93 166.85 184.55 167.57 184.88 168.08 C 187.48 172.15 191.87 172.84 195.97 174.09 C 197.27 174.49 199.07 174.43 198.57 176.91 C 199.06 174.29 200.86 174.48 202.63 174.49 C 204.11 174.50 206.18 173.75 206.93 174.46 C 208.19 175.65 205.90 176.92 205.84 178.51 C 205.77 180.27 204.85 181.98 204.50 183.74 C 203.29 189.89 203.89 195.88 206.52 201.59 C 207.04 202.72 207.13 203.80 207.08 204.95 Z" fill="#dba3c8" fill-rule="nonzero" group-id="1,2" node-id="104" stroke="none" target-height="39.689987" target-width="32.300003" target-x="175.89" target-y="166.85"></path><path d="M 235.75 182.27 C 232.75 178.45 229.70 175.35 226.01 172.67 C 221.57 169.45 216.87 167.75 211.57 167.59 C 209.00 167.51 209.10 166.37 209.93 164.76 C 211.21 162.27 212.29 159.72 213.30 157.10 C 214.75 153.36 215.25 149.58 215.13 145.63 C 215.10 144.74 214.60 143.62 215.64 143.01 C 216.75 142.36 217.33 143.46 218.08 143.98 C 223.17 147.50 228.65 150.02 234.96 150.32 C 235.25 150.33 235.56 150.25 235.82 150.34 C 237.22 150.84 239.08 148.78 239.88 150.55 C 240.25 151.37 238.83 153.04 238.16 154.29 C 234.01 162.03 234.10 170.17 235.85 178.46 C 236.14 179.93 236.25 179.90 235.75 182.27 Z" fill="#eb5b19" fill-rule="nonzero" group-id="1,2" node-id="106" stroke="none" target-height="39.910004" target-width="31.25" target-x="209" target-y="142.36"></path><path d="M 447.25 157.34 C 445.81 158.57 445.47 156.84 444.85 156.32 C 441.94 153.87 439.13 151.31 436.35 148.71 C 436.17 148.54 434.46 147.83 436.26 147.28 C 440.50 150.01 443.38 154.21 447.25 157.34 Z" fill="#7467ac" fill-rule="nonzero" group-id="1,2" node-id="108" stroke="none" target-height="11.290009" target-width="12.790009" target-x="434.46" target-y="147.28"></path><path d="M 159.41 198.05 C 156.82 199.33 154.47 197.38 151.97 197.52 C 150.99 197.57 150.02 197.60 149.50 196.53 C 152.01 196.99 154.50 196.95 157.03 196.53 C 158.08 196.35 159.63 195.97 159.41 198.05 Z" fill="#726fb2" fill-rule="nonzero" group-id="1,2" node-id="110" stroke="none" target-height="3.3600006" target-width="10.130005" target-x="149.5" target-y="195.97"></path><path d="M 457.71 167.62 C 455.62 166.09 453.56 164.53 452.40 162.11 C 454.68 163.46 456.62 165.13 457.71 167.62 Z" fill="#8876ad" fill-rule="nonzero" group-id="1,2" node-id="112" stroke="none" target-height="5.5099945" target-width="5.3099976" target-x="452.4" target-y="162.11"></path><path d="M 173.66 212.52 C 172.97 211.54 171.56 213.64 170.96 211.83 C 170.54 210.55 171.59 210.24 172.08 209.54 C 172.82 210.41 173.58 211.28 173.66 212.52 Z" fill="#807cba" fill-rule="nonzero" group-id="1,2" node-id="114" stroke="none" target-height="4.100006" target-width="3.1200104" target-x="170.54" target-y="209.54"></path><path d="M 451.89 161.35 C 449.47 161.49 448.55 160.75 448.86 158.91 C 449.87 159.72 450.88 160.53 451.89 161.35 Z" fill="#826eb0" fill-rule="nonzero" group-id="1,2" node-id="116" stroke="none" target-height="2.5800018" target-width="3.3400269" target-x="448.55" target-y="158.91"></path><path d="M 225.52 331.09 C 233.49 331.24 241.47 331.01 249.41 331.99 C 250.25 332.09 251.10 331.82 251.89 331.73 C 253.82 331.51 254.96 332.67 256.35 333.49 C 256.92 333.83 257.53 334.22 258.21 333.71 C 261.99 330.81 266.37 332.15 270.38 332.45 C 272.93 332.64 275.46 332.35 278.02 332.61 C 283.91 333.21 289.86 333.17 295.78 333.46 C 298.04 333.57 300.36 333.49 302.38 334.79 C 302.96 335.16 303.46 334.83 304.01 334.76 C 305.79 334.52 307.52 334.15 309.21 335.42 C 310.21 336.17 311.64 335.72 312.87 335.55 C 316.06 335.10 319.06 334.72 322.29 336.25 C 323.67 336.90 326.13 335.88 328.18 336.16 C 340.91 337.89 353.79 337.81 366.54 339.52 C 373.79 340.49 381.01 341.84 388.36 342.16 C 390.88 342.27 392.94 343.64 394.76 345.56 C 396.61 347.52 395.38 348.37 393.91 349.27 C 391.33 350.85 388.67 349.50 386.07 349.29 C 382.63 349.01 379.23 348.31 375.80 347.89 C 373.17 347.58 370.43 348.00 368.06 346.30 C 367.66 346.01 366.95 346.10 366.39 346.11 C 357.92 346.26 349.53 345.28 341.12 344.39 C 333.84 343.62 326.52 343.19 319.21 342.70 C 306.54 341.84 293.84 341.42 281.22 340.12 C 270.89 339.05 260.52 339.40 250.22 338.32 C 245.23 337.80 240.13 338.07 235.21 337.22 C 230.76 336.45 226.40 337.14 222.01 336.80 C 221.13 336.73 219.97 337.15 219.76 335.70 C 219.44 335.44 219.09 335.38 218.71 335.54 C 218.02 335.83 217.25 336.37 216.70 335.47 C 216.24 334.70 217.03 334.21 217.30 333.57 C 218.25 331.35 219.92 331.30 221.88 331.36 C 223.09 331.39 224.35 331.71 225.52 331.09 Z" fill="#eb5b19" fill-rule="nonzero" group-id="1,2" node-id="118" stroke="none" target-height="20.040009" target-width="180.36998" target-x="216.24" target-y="330.81"></path><path d="M 351.62 362.19 C 346.18 360.76 341.88 363.32 337.19 365.59 C 333.31 367.46 329.62 370.28 324.42 369.42 C 321.68 368.97 318.43 369.76 315.99 368.14 C 311.61 365.23 306.34 364.75 301.82 362.34 C 301.43 362.13 300.89 362.19 300.42 362.12 C 299.24 361.49 297.49 361.56 297.40 359.59 C 297.38 359.13 297.26 358.53 296.68 358.51 C 296.00 358.49 295.78 359.09 295.63 359.67 C 295.47 360.28 295.81 361.04 295.11 361.50 C 291.88 362.26 288.66 363.04 285.43 363.79 C 284.79 363.94 284.27 363.62 283.96 363.12 C 283.56 362.49 283.05 362.25 282.67 362.93 C 280.86 366.17 277.66 364.57 275.14 365.32 C 273.07 365.93 271.23 365.43 269.31 365.57 C 266.55 365.77 264.26 364.94 262.31 363.03 C 260.81 361.57 258.35 361.75 256.99 359.66 C 256.65 359.14 253.53 360.43 251.69 360.89 C 249.19 361.51 246.71 362.19 244.19 362.72 C 243.38 362.89 242.31 363.63 241.68 362.30 C 241.54 362.00 241.15 361.86 241.03 362.11 C 238.90 366.60 237.43 361.61 235.60 361.67 C 235.05 361.69 234.35 360.53 233.64 360.93 C 232.52 361.56 233.94 362.38 233.81 363.15 C 230.56 362.95 229.93 362.38 229.30 359.14 C 228.70 359.68 228.00 360.07 227.24 359.81 C 225.17 359.10 223.70 360.04 222.47 361.50 C 221.45 362.71 220.36 362.85 219.33 361.77 C 218.27 360.66 218.02 359.43 219.75 358.57 C 220.61 358.14 220.21 357.15 220.64 356.57 C 221.37 355.58 221.81 353.92 223.66 355.30 C 224.77 356.13 226.50 355.54 227.12 355.04 C 229.10 353.46 230.52 354.77 232.05 355.47 C 232.91 355.86 233.84 356.21 234.60 356.70 C 238.56 359.30 241.88 356.35 245.27 355.37 C 248.32 354.49 251.44 354.40 254.45 353.57 C 255.70 353.23 256.67 354.26 257.16 354.81 C 258.52 356.34 259.43 356.43 260.62 354.80 C 260.76 354.61 261.35 354.76 261.73 354.76 C 262.27 355.31 262.79 355.88 263.04 356.62 C 263.55 358.14 264.46 357.40 265.32 357.08 C 270.78 360.31 276.35 359.64 281.84 357.33 C 283.64 356.58 284.72 356.09 284.78 358.63 C 284.80 359.42 285.21 359.59 285.91 359.41 C 286.43 359.28 287.50 359.38 287.36 358.87 C 286.07 354.43 289.60 355.21 291.71 355.07 C 293.81 354.92 295.83 354.32 297.84 354.22 C 301.46 354.04 305.08 354.84 308.33 356.55 C 311.94 358.45 315.73 360.04 319.45 361.60 C 322.59 362.92 326.38 362.80 329.74 361.05 C 331.26 360.26 332.79 359.20 334.38 361.01 C 335.63 357.44 338.27 356.26 341.67 357.53 C 343.11 358.07 344.67 359.10 343.84 356.07 C 343.47 354.73 344.85 354.69 345.78 354.64 C 353.18 354.22 359.51 356.38 364.18 362.43 C 364.76 363.18 365.36 363.94 366.03 364.61 C 368.07 366.63 370.11 368.42 373.11 365.92 C 373.92 365.24 375.19 364.94 376.39 365.09 C 378.77 366.66 379.86 364.92 381.01 363.31 C 384.45 361.59 388.12 361.56 391.83 361.86 C 393.63 362.01 394.19 363.64 395.17 364.74 C 395.49 365.10 395.49 365.88 395.00 365.97 C 393.36 366.25 391.64 366.25 391.07 368.29 C 389.18 365.41 389.37 370.09 387.56 369.23 C 385.91 368.45 383.82 369.30 381.93 369.63 C 380.17 369.94 378.71 371.04 376.82 371.19 C 375.73 371.28 374.70 372.61 373.42 373.08 C 371.99 373.60 370.65 374.61 369.51 372.71 C 369.11 372.04 368.67 372.40 368.42 372.76 C 367.18 374.48 365.82 373.51 364.66 372.82 C 362.97 371.83 364.90 370.65 364.64 369.22 C 361.95 371.79 360.90 369.07 359.55 367.67 C 357.91 365.98 357.18 363.97 358.77 361.77 C 359.09 361.33 359.13 360.91 358.75 360.49 C 358.27 359.96 357.87 360.36 357.55 360.67 C 357.07 361.12 356.67 361.65 356.23 362.15 C 356.04 362.49 355.53 362.95 355.44 362.80 C 354.36 361.05 352.98 361.76 351.62 362.19 Z" fill="#eb5c19" fill-rule="nonzero" group-id="1,2" node-id="120" stroke="none" target-height="21.379974" target-width="177.46999" target-x="218.02" target-y="353.23"></path><path d="M 222.52 372.00 C 223.95 369.23 229.50 367.48 231.79 369.01 C 232.67 369.60 233.12 369.44 233.86 369.28 C 236.83 368.67 239.73 369.78 242.69 369.68 C 243.32 369.66 243.77 369.90 243.97 370.57 C 244.26 371.52 245.35 371.74 245.83 371.46 C 249.85 369.07 253.48 370.51 257.47 371.79 C 259.08 372.30 261.73 372.18 263.57 371.85 C 266.83 371.27 269.73 372.03 272.74 372.57 C 273.52 372.71 274.23 372.66 274.98 372.61 C 280.92 372.19 286.80 373.25 292.63 373.94 C 294.87 374.20 297.33 373.27 299.24 374.41 C 301.57 375.80 303.76 374.80 306.00 374.83 C 307.54 374.85 308.85 376.00 310.54 375.38 C 312.15 374.79 314.20 376.97 314.89 376.36 C 316.83 374.63 318.57 375.76 320.28 376.06 C 323.42 376.61 326.57 376.48 329.71 376.61 C 330.91 376.66 332.24 376.31 333.00 377.75 C 333.23 378.19 333.75 378.41 334.25 378.22 C 337.76 376.85 341.08 377.69 344.59 378.53 C 346.13 378.90 348.28 377.95 349.90 378.57 C 352.47 379.54 355.01 378.50 357.44 379.01 C 358.50 379.23 360.76 378.35 360.72 380.99 C 360.71 381.79 361.79 381.38 362.11 381.10 C 365.46 378.19 369.12 380.44 372.63 380.40 C 374.20 380.38 375.42 381.20 376.20 382.46 C 376.74 383.34 378.36 383.86 377.63 385.22 C 376.98 386.41 375.83 387.39 374.40 387.36 C 370.39 387.28 366.32 387.41 362.42 386.69 C 360.09 386.26 357.88 386.93 355.54 386.44 C 353.67 386.05 351.46 385.92 349.53 385.62 C 348.18 385.41 347.39 386.23 346.16 386.09 C 339.72 385.34 333.26 384.91 326.82 384.08 C 318.31 382.99 309.77 382.12 301.19 381.58 C 293.65 381.10 286.08 380.72 278.55 379.98 C 276.47 379.78 274.44 379.05 272.39 378.55 C 272.14 378.49 271.76 378.14 271.71 378.19 C 269.96 379.94 267.98 378.39 266.33 378.63 C 262.71 379.17 259.30 377.97 255.77 378.30 C 253.14 378.55 250.73 377.21 248.20 376.69 C 246.75 376.40 245.62 377.17 244.29 377.24 C 240.78 377.43 237.46 376.49 234.07 375.95 C 227.78 374.95 221.38 374.64 215.26 372.56 C 213.22 371.87 212.68 370.80 212.99 368.97 C 213.39 366.63 214.92 367.51 216.30 367.86 C 217.22 368.10 218.23 368.03 219.11 368.36 C 220.64 368.97 222.57 369.28 222.52 372.00 Z" fill="#eb5b19" fill-rule="nonzero" group-id="1,2" node-id="122" stroke="none" target-height="20.779999" target-width="165.68" target-x="212.68" target-y="366.63"></path><path d="M 283.67 396.72 C 278.58 396.24 273.47 395.96 268.38 395.28 C 265.01 394.83 261.35 394.89 257.85 394.53 C 254.72 394.21 251.48 393.27 248.51 393.42 C 244.43 393.63 240.60 392.48 236.61 392.40 C 234.17 392.35 231.15 393.08 228.94 390.87 C 228.23 390.16 227.81 391.29 227.22 391.34 C 225.39 391.48 223.02 392.57 223.06 389.11 C 223.06 388.71 222.61 388.31 222.13 387.53 C 223.80 387.99 224.97 388.26 225.36 386.13 C 225.57 384.96 228.54 385.94 229.58 387.82 C 230.67 387.67 230.49 385.01 232.17 386.22 C 233.76 387.36 233.92 389.28 234.29 391.06 C 234.96 391.19 235.08 390.55 235.12 390.23 C 235.33 388.49 235.95 386.78 237.75 386.58 C 239.47 386.38 239.36 388.61 240.58 389.81 C 240.90 385.93 243.65 386.84 245.88 387.01 C 252.23 387.49 258.57 388.13 264.92 388.62 C 266.37 388.73 266.87 389.59 267.37 391.03 C 268.68 389.05 270.56 388.95 272.42 389.27 C 275.36 389.79 278.30 389.77 281.26 389.87 C 282.86 389.93 284.17 392.11 285.93 390.50 C 286.75 391.22 285.97 391.87 286.12 392.49 C 286.23 392.93 286.47 393.17 286.89 393.18 C 287.35 393.19 287.66 392.88 287.48 392.46 C 286.70 390.63 288.32 390.63 289.12 390.69 C 294.26 391.10 299.39 391.73 304.52 392.18 C 306.40 392.34 308.31 392.11 310.19 392.24 C 312.21 392.38 314.03 392.98 314.62 395.66 C 314.98 393.37 316.36 393.20 318.09 393.19 C 325.66 393.12 333.09 394.53 340.61 395.03 C 345.46 395.35 350.31 395.83 355.17 396.12 C 358.74 396.33 362.27 397.12 365.89 396.81 C 367.09 396.71 371.06 400.68 370.55 401.27 C 369.43 402.53 368.18 404.35 366.22 404.09 C 362.19 403.55 358.12 403.49 354.08 402.66 C 351.57 402.14 348.75 403.13 346.10 402.50 C 341.07 401.31 335.74 401.99 330.83 400.06 C 329.26 401.80 327.50 400.37 325.83 400.39 C 321.77 400.42 317.77 399.89 313.75 399.50 C 310.72 399.21 307.53 398.87 304.39 398.95 C 302.55 399.00 300.50 399.12 299.19 397.26 C 298.71 396.58 298.22 397.05 297.69 397.22 C 292.97 398.67 288.34 397.15 283.68 396.74 C 283.94 395.96 283.77 395.07 284.39 394.33 C 283.50 394.98 283.90 395.93 283.67 396.72 Z" fill="#eb5c19" fill-rule="nonzero" group-id="1,2" node-id="124" stroke="none" target-height="19.390015" target-width="148.93" target-x="222.13" target-y="384.96"></path><path d="M 299.54 412.90 C 300.97 414.36 299.97 415.36 299.18 416.37 C 298.61 417.10 297.74 416.99 297.06 416.75 C 295.81 416.30 296.50 415.17 296.44 414.11 C 294.70 417.59 291.65 416.35 289.14 416.20 C 283.56 415.88 277.97 415.38 272.45 414.56 C 269.10 414.06 265.51 414.78 262.37 412.63 C 261.66 412.15 260.00 413.34 258.83 413.21 C 253.58 412.61 248.36 411.76 243.11 411.11 C 241.50 410.91 240.45 410.21 240.62 408.63 C 240.77 407.20 240.89 405.38 243.02 405.29 C 247.76 405.09 252.51 405.19 257.22 405.71 C 261.30 406.16 265.56 405.78 269.43 406.79 C 272.47 407.58 276.49 405.25 278.64 409.29 C 278.98 409.93 279.52 409.25 279.74 408.96 C 280.83 407.48 282.37 407.54 283.90 407.69 C 293.17 408.59 302.43 409.51 311.74 410.10 C 320.82 410.68 329.87 411.92 338.93 412.83 C 340.24 412.96 341.59 412.81 342.90 412.91 C 344.95 413.08 346.19 415.16 348.65 414.97 C 350.16 414.85 350.54 417.97 349.26 419.47 C 348.17 420.74 346.72 421.08 345.11 420.96 C 339.60 420.56 333.96 420.74 328.62 419.56 C 325.15 418.79 321.79 419.60 318.50 418.88 C 314.97 418.11 311.41 418.13 307.85 417.97 C 306.62 417.91 305.40 417.60 304.18 417.45 C 302.63 417.27 301.37 416.92 301.49 414.90 C 301.56 413.84 300.68 413.32 299.54 412.90 Z" fill="#eb5b19" fill-rule="nonzero" group-id="1,2" node-id="126" stroke="none" target-height="15.98999" target-width="110.09001" target-x="240.45" target-y="405.09"></path><path d="M 317.45 304.02 C 318.63 304.56 318.02 305.68 318.28 306.51 C 318.72 307.92 319.46 309.09 321.16 309.16 C 314.72 316.98 304.95 318.23 296.44 315.17 C 295.76 314.93 295.23 314.27 294.64 313.80 C 294.30 312.61 294.05 312.48 292.34 312.65 C 290.68 311.73 289.16 309.66 287.18 312.44 C 286.80 312.98 284.91 313.64 284.58 311.46 C 284.42 310.43 283.60 311.00 283.09 311.46 C 282.09 312.04 281.28 312.12 281.13 310.66 C 281.06 309.99 281.18 309.22 280.08 309.65 C 279.26 310.54 279.27 312.65 277.44 312.04 C 275.28 311.32 272.64 310.81 271.84 308.34 C 271.50 307.28 271.37 307.03 270.31 306.69 C 267.68 305.86 268.31 303.21 267.87 301.27 C 266.65 295.86 269.82 291.70 272.11 287.31 C 272.89 285.81 274.24 284.62 274.26 282.72 C 274.27 281.71 275.13 281.39 276.06 281.35 C 277.15 282.32 277.65 281.26 278.29 280.69 C 279.45 280.83 280.83 280.76 280.20 282.65 C 279.58 284.99 279.22 287.37 277.91 289.55 C 276.98 291.09 276.29 292.28 274.07 291.37 C 274.32 292.67 276.67 292.68 275.61 293.73 C 273.82 295.51 274.31 299.74 269.95 298.69 C 272.38 301.01 273.91 303.77 276.78 305.13 C 279.79 306.55 282.99 306.57 286.75 306.70 C 284.29 303.62 286.49 300.71 286.65 297.70 C 287.76 295.94 288.80 296.72 289.75 297.84 C 291.14 299.48 290.59 301.39 290.43 303.24 C 290.52 303.48 290.61 303.73 290.70 303.97 C 291.24 304.92 291.02 306.19 291.98 306.98 C 292.19 307.12 292.41 307.24 292.63 307.36 C 292.88 307.47 293.13 307.57 293.41 307.56 C 293.30 307.01 292.71 307.39 292.47 307.08 C 291.46 305.94 291.95 304.60 292.42 303.62 C 293.45 301.45 294.48 299.22 296.34 297.56 C 297.12 297.47 297.85 299.47 298.72 297.54 C 299.16 296.57 299.71 295.14 301.19 295.78 C 302.39 296.30 301.67 297.66 301.82 298.63 C 301.86 298.91 301.77 299.19 301.63 299.45 C 300.84 302.18 299.98 304.81 297.55 306.71 C 296.39 307.61 296.34 309.10 298.33 309.22 C 302.40 309.46 306.28 310.82 310.65 309.37 C 313.03 308.58 314.36 307.63 315.38 305.77 C 315.87 304.84 317.16 305.06 317.45 304.02 Z" fill="#fffefc" fill-rule="nonzero" group-id="1,2" node-id="128" stroke="none" target-height="37.54001" target-width="54.51001" target-x="266.65" target-y="280.69"></path><path d="M 382.17 380.01 C 382.14 377.95 382.95 376.27 385.10 376.09 C 390.07 375.67 393.11 372.36 396.12 369.03 C 397.30 367.72 397.67 365.75 399.25 364.65 C 399.56 364.44 399.83 363.74 399.71 363.41 C 398.06 358.98 399.60 354.04 397.48 349.69 C 396.79 348.27 397.24 347.13 398.56 346.24 C 399.91 345.32 400.72 346.15 401.84 346.82 C 404.84 348.64 405.52 351.80 406.07 354.67 C 406.75 358.20 406.41 361.90 406.12 365.55 C 405.80 369.57 403.10 372.00 400.60 374.53 C 397.54 377.63 394.48 380.79 390.21 382.32 C 389.37 382.88 388.61 382.60 387.88 382.09 C 387.43 381.77 386.99 381.24 386.42 381.72 C 383.93 383.76 383.03 381.96 382.17 380.01 Z" fill="#eb5d19" fill-rule="nonzero" group-id="1,2" node-id="130" stroke="none" target-height="38.440002" target-width="24.609985" target-x="382.14" target-y="345.32"></path><path d="M 205.96 367.32 C 202.47 365.16 201.88 361.56 201.32 357.95 C 201.31 357.86 201.34 357.75 201.31 357.66 C 200.70 355.80 203.69 356.80 203.22 355.37 C 202.90 354.39 201.27 354.50 201.18 352.76 C 200.88 347.29 202.17 342.17 203.90 337.10 C 204.29 335.96 204.84 334.73 206.35 334.59 C 207.43 334.50 208.12 335.18 208.77 335.90 C 209.10 336.27 209.37 336.67 209.21 337.18 C 207.66 342.09 207.36 347.18 207.14 352.27 C 207.11 352.98 206.89 353.31 206.10 353.09 C 205.50 352.93 204.58 352.62 204.51 353.59 C 204.45 354.36 205.25 355.19 205.96 355.07 C 207.91 354.74 207.70 356.02 207.70 357.13 C 207.71 359.18 208.06 361.10 209.40 362.74 C 210.64 366.08 207.79 366.31 205.96 367.32 Z" fill="#eb5e19" fill-rule="nonzero" group-id="1,2" node-id="132" stroke="none" target-height="32.820007" target-width="9.940002" target-x="200.7" target-y="334.5"></path><path d="M 222.75 304.68 C 220.88 305.09 218.83 304.25 217.07 305.73 C 216.57 306.15 215.40 305.67 214.61 305.88 C 212.29 306.48 212.48 302.12 210.96 303.44 C 208.55 305.54 207.72 303.33 206.59 302.48 C 205.26 301.49 204.29 299.99 203.25 298.65 C 202.58 297.79 202.17 296.65 202.52 295.67 C 203.17 293.84 203.37 292.06 202.99 290.18 C 203.65 289.43 204.37 288.84 205.41 289.53 C 206.30 290.13 206.00 291.02 205.91 291.84 C 205.82 292.64 205.27 293.45 206.00 294.22 C 207.31 294.24 208.46 294.42 208.33 296.20 C 208.25 297.24 208.53 298.09 209.82 298.19 C 211.52 298.32 212.95 298.83 213.52 300.71 C 213.67 301.22 214.48 301.83 214.86 301.33 C 216.75 298.85 219.97 300.53 222.07 298.86 C 221.90 300.84 222.32 302.76 222.75 304.68 Z" fill="#fffef9" fill-rule="nonzero" group-id="1,2" node-id="134" stroke="none" target-height="17.640015" target-width="20.580002" target-x="202.17" target-y="288.84"></path><path d="M 241.99 271.04 C 236.55 271.53 233.55 274.79 231.09 278.80 C 230.41 279.91 229.78 281.05 229.12 282.17 C 228.02 284.04 226.34 283.12 225.03 282.75 C 223.88 282.42 224.54 281.18 224.68 280.34 C 225.72 274.28 231.34 268.69 237.30 267.62 C 238.18 267.46 238.90 266.58 239.78 266.30 C 240.62 266.03 241.59 265.56 242.61 266.42 C 241.97 267.84 240.57 269.24 241.99 271.04 Z" fill="#fffef9" fill-rule="nonzero" group-id="1,2" node-id="136" stroke="none" target-height="18.480011" target-width="18.729996" target-x="223.88" target-y="265.56"></path><path d="M 222.75 304.68 C 221.12 302.90 220.81 300.97 222.06 298.85 C 225.60 295.82 225.64 295.60 224.97 284.18 C 225.77 284.94 226.32 285.65 227.04 286.09 C 227.51 286.38 228.02 287.04 228.87 286.07 C 230.00 284.77 229.09 286.75 229.59 286.70 C 230.65 287.45 231.04 288.70 231.84 289.65 C 232.43 297.42 229.77 301.82 222.75 304.68 Z" fill="#fffefa" fill-rule="nonzero" group-id="1,2" node-id="138" stroke="none" target-height="20.5" target-width="11.619995" target-x="220.81" target-y="284.18"></path><path d="M 265.26 263.75 C 267.28 262.79 269.16 264.14 270.43 264.97 C 272.88 266.56 275.44 268.06 277.79 269.84 C 278.83 270.63 279.30 271.78 279.89 272.87 C 280.60 274.19 279.98 274.59 278.92 275.50 C 275.74 278.24 274.44 276.45 273.06 273.71 C 272.62 272.83 271.72 272.04 270.85 271.54 C 269.52 270.77 268.51 269.96 269.07 267.56 C 266.78 269.72 265.05 270.31 264.05 267.33 C 263.37 265.77 264.16 264.71 265.26 263.75 Z" fill="#fffefa" fill-rule="nonzero" group-id="1,2" node-id="140" stroke="none" target-height="15.449982" target-width="17.230011" target-x="263.37" target-y="262.79"></path><path d="M 290.06 304.00 C 288.64 303.00 290.06 301.93 290.04 300.89 C 289.98 298.33 288.83 297.11 286.63 297.70 C 286.13 294.93 288.04 290.88 290.58 289.83 C 291.65 289.38 292.97 288.56 294.10 289.36 C 295.09 290.05 292.89 290.83 293.83 291.78 C 294.27 291.92 294.54 291.68 294.79 291.38 C 296.42 289.41 297.87 289.54 299.23 291.70 C 299.46 292.07 299.97 292.27 300.36 292.54 C 300.31 295.34 299.25 296.55 296.53 296.95 C 296.22 296.73 296.61 296.96 296.27 296.87 C 295.16 296.57 294.78 294.47 293.28 295.43 C 291.97 296.27 291.37 297.67 291.31 299.30 C 291.23 300.94 291.66 302.75 290.06 304.00 Z" fill="#fef8e1" fill-rule="nonzero" group-id="1,2" node-id="142" stroke="none" target-height="15.440002" target-width="14.22998" target-x="286.13" target-y="288.56"></path><path d="M 259.50 269.49 C 260.11 270.34 260.74 271.17 261.33 272.03 C 261.80 272.71 262.07 273.77 261.33 274.07 C 259.81 274.70 259.63 275.52 259.91 277.01 C 260.07 277.84 254.73 279.20 254.06 278.48 C 253.29 277.65 254.13 277.14 254.56 276.56 C 255.50 275.28 256.51 274.00 254.43 272.82 C 253.36 271.75 254.09 270.45 253.97 269.26 C 254.05 269.01 254.20 268.81 254.41 268.66 C 254.76 268.50 255.12 268.45 255.50 268.51 C 256.16 268.78 256.83 268.86 257.51 268.56 C 258.37 268.46 258.99 268.86 259.50 269.49 Z" fill="#fffbef" fill-rule="nonzero" group-id="1,2" node-id="144" stroke="none" target-height="10.75" target-width="8.780014" target-x="253.29" target-y="268.45"></path><path d="M 251.96 272.29 C 251.04 272.95 250.32 274.33 249.49 271.93 C 248.89 270.20 246.72 270.82 245.21 270.87 C 244.49 270.89 243.80 271.36 242.85 270.63 C 244.49 270.01 244.48 268.89 244.07 267.50 C 243.91 266.93 243.69 265.87 244.81 265.66 C 245.64 265.50 245.81 266.50 246.18 266.67 C 247.23 267.14 248.44 270.48 249.69 266.76 C 250.23 265.16 251.26 267.33 252.02 266.65 C 254.41 266.23 254.78 266.61 254.28 268.94 L 254.31 268.91 C 253.03 269.67 253.59 271.75 251.96 272.29 Z" fill="#fdf5d9" fill-rule="nonzero" group-id="1,2" node-id="146" stroke="none" target-height="9.169983" target-width="11.929993" target-x="242.85" target-y="265.16"></path><path d="M 265.26 263.75 C 265.18 265.05 263.78 265.91 264.05 267.32 C 263.77 266.87 263.49 266.42 263.24 266.02 C 262.96 266.59 262.67 267.18 262.38 267.77 C 259.81 268.78 257.32 269.00 255.07 267.02 C 254.48 266.50 253.47 266.06 254.45 265.04 C 255.17 264.81 255.88 264.57 256.60 264.34 C 257.77 265.04 258.92 264.73 260.07 264.30 C 261.78 263.95 263.62 264.76 265.26 263.75 Z" fill="#fffbef" fill-rule="nonzero" group-id="1,2" node-id="148" stroke="none" target-height="5.25" target-width="11.790009" target-x="253.47" target-y="263.75"></path><path d="M 276.11 281.62 C 275.50 282.03 274.24 282.38 274.59 283.05 C 276.10 285.97 272.73 285.80 272.10 287.31 C 273.00 284.49 274.38 281.85 274.79 278.85 C 274.96 277.55 276.37 278.19 277.19 278.14 C 279.64 278.00 281.25 280.51 280.18 282.65 C 279.98 281.40 279.04 281.17 278.01 281.04 C 277.26 280.84 276.75 281.45 276.11 281.62 Z" fill="#fcf2cb" fill-rule="nonzero" group-id="1,2" node-id="150" stroke="none" target-height="9.76001" target-width="9.149994" target-x="272.1" target-y="277.55"></path><path d="M 296.44 296.47 C 299.01 296.42 299.50 294.30 300.35 292.54 C 301.43 294.73 303.19 296.79 301.61 299.46 C 301.61 298.89 301.62 298.32 301.59 297.75 C 301.56 297.11 301.73 296.30 300.84 296.11 C 299.82 295.89 299.95 296.73 299.75 297.35 C 299.37 298.54 297.85 298.87 297.26 300.23 C 296.99 299.42 296.72 298.62 296.46 297.81 C 296.02 297.37 296.02 296.93 296.44 296.47 Z" fill="#f8e188" fill-rule="nonzero" group-id="1,2" node-id="152" stroke="none" target-height="7.6900024" target-width="7.1700134" target-x="296.02" target-y="292.54"></path><path d="M 225.52 331.09 C 224.68 332.02 223.57 331.61 222.57 331.64 C 220.76 331.70 218.79 331.22 218.07 333.74 C 217.95 334.17 216.67 334.26 217.08 335.11 C 217.50 335.99 218.25 335.04 218.83 335.17 C 219.16 335.24 219.45 335.51 219.76 335.68 C 216.54 336.87 214.91 336.29 214.45 333.85 C 214.33 333.23 214.30 332.72 214.82 332.32 C 215.68 331.65 215.63 332.57 215.91 332.95 C 216.26 333.43 216.98 333.44 217.11 333.06 C 218.29 329.68 221.14 331.50 223.24 331.05 C 223.96 330.90 224.76 331.07 225.52 331.09 Z" fill="#ef7e1b" fill-rule="nonzero" group-id="1,2" node-id="154" stroke="none" target-height="7.1900024" target-width="11.220001" target-x="214.3" target-y="329.68"></path><path d="M 295.11 361.50 C 295.19 360.52 294.13 359.53 295.11 358.58 C 295.69 358.01 296.13 357.06 297.11 357.26 C 298.01 357.45 298.15 358.35 298.02 359.09 C 297.65 361.09 299.83 360.96 300.43 362.12 C 298.61 362.31 296.86 361.88 295.11 361.50 Z" fill="#f39f1b" fill-rule="nonzero" group-id="1,2" node-id="156" stroke="none" target-height="5.25" target-width="6.299988" target-x="294.13" target-y="357.06"></path><path d="M 206.00 294.22 C 204.92 293.61 205.16 292.40 205.28 291.65 C 205.70 289.07 204.41 289.63 202.99 290.18 C 203.15 289.00 203.81 288.17 204.97 288.06 C 206.17 287.95 206.83 289.02 207.42 289.82 C 208.29 290.98 207.36 291.70 206.47 292.37 C 205.85 292.83 205.95 293.54 206.00 294.22 Z" fill="#fbecb3" fill-rule="nonzero" group-id="1,2" node-id="158" stroke="none" target-height="6.269989" target-width="5.299988" target-x="202.99" target-y="287.95"></path><path d="M 254.46 265.04 C 255.52 267.09 257.92 268.24 259.90 267.78 C 260.69 267.60 261.55 267.76 262.38 267.77 C 262.13 269.52 259.80 267.81 259.50 269.49 C 258.76 269.32 258.01 269.15 257.27 268.98 C 256.67 269.13 256.16 268.00 255.50 268.85 C 255.10 268.88 254.70 268.92 254.30 268.95 C 254.45 267.30 253.81 266.42 252.04 266.66 C 252.69 265.87 253.52 265.38 254.46 265.04 Z" fill="#f8e28d" fill-rule="nonzero" group-id="1,2" node-id="160" stroke="none" target-height="4.4799805" target-width="10.340012" target-x="252.04" target-y="265.04"></path><path d="M 382.17 380.01 C 383.35 380.84 384.00 384.18 386.08 380.75 C 386.52 380.03 387.47 380.18 387.87 381.12 C 388.33 382.19 389.19 382.38 390.20 382.32 C 388.21 383.50 386.03 382.93 383.97 382.76 C 382.69 382.66 382.02 381.43 382.17 380.01 Z" fill="#f3991a" fill-rule="nonzero" group-id="1,2" node-id="162" stroke="none" target-height="4.169983" target-width="8.180023" target-x="382.02" target-y="380.01"></path><path d="M 380.99 363.32 C 380.02 364.41 381.12 366.57 379.51 367.03 C 378.28 367.39 377.62 365.47 376.37 365.10 C 378.18 365.20 378.85 362.36 380.99 363.32 Z" fill="#f2931a" fill-rule="nonzero" group-id="1,2" node-id="164" stroke="none" target-height="5.0300293" target-width="4.75" target-x="376.37" target-y="362.36"></path><path d="M 328.18 268.91 C 328.96 269.21 329.74 269.51 330.48 269.80 C 330.67 271.80 327.75 271.92 328.02 273.96 C 327.37 273.87 327.44 273.32 327.34 272.88 C 327.16 271.46 327.69 270.19 328.18 268.91 Z" fill="#faedef" fill-rule="nonzero" group-id="1,2" node-id="166" stroke="none" target-height="5.049988" target-width="3.5100098" target-x="327.16" target-y="268.91"></path><path d="M 351.62 362.19 C 353.46 361.98 352.35 360.41 352.77 359.55 C 354.50 359.71 354.20 362.43 356.20 362.15 C 354.69 364.40 353.16 363.27 351.62 362.19 Z" fill="#f2931a" fill-rule="nonzero" group-id="1,2" node-id="168" stroke="none" target-height="4.850006" target-width="4.580017" target-x="351.62" target-y="359.55"></path><path d="M 205.96 367.32 C 206.62 365.44 210.06 365.65 209.39 362.76 C 210.44 363.59 210.77 364.68 209.88 365.69 C 208.89 366.81 207.83 368.17 205.96 367.32 Z" fill="#f39e1a" fill-rule="nonzero" group-id="1,2" node-id="170" stroke="none" target-height="5.4100037" target-width="4.8099976" target-x="205.96" target-y="362.76"></path><path d="M 265.30 357.09 C 264.79 357.72 264.69 358.98 263.75 358.88 C 262.89 358.80 262.72 357.66 262.42 356.89 C 262.15 356.19 261.95 355.47 261.71 354.76 C 263.20 355.10 264.14 356.27 265.30 357.09 Z" fill="#f39c19" fill-rule="nonzero" group-id="1,2" node-id="172" stroke="none" target-height="4.220001" target-width="3.5899963" target-x="261.71" target-y="354.76"></path><path d="M 251.96 272.29 C 253.25 271.51 251.45 268.57 254.33 268.91 C 255.00 270.20 254.15 271.52 254.43 272.82 C 253.61 272.65 252.79 272.47 251.96 272.29 Z" fill="#f8e28d" fill-rule="nonzero" group-id="1,2" node-id="174" stroke="none" target-height="4.25" target-width="3.550003" target-x="251.45" target-y="268.57"></path><path d="M 321.32 291.40 C 322.96 291.09 324.01 291.85 324.79 293.38 C 323.43 294.07 322.25 293.67 321.08 293.04 C 321.17 292.49 321.25 291.95 321.32 291.40 Z" fill="#fefbf6" fill-rule="nonzero" group-id="1,2" node-id="176" stroke="none" target-height="2.980011" target-width="3.710022" target-x="321.08" target-y="291.09"></path><path d="M 280.07 309.65 C 280.36 308.94 280.68 307.99 281.57 308.33 C 282.42 308.65 281.76 309.45 281.57 310.03 C 281.04 311.60 282.06 311.53 283.08 311.46 C 282.48 312.21 281.71 312.95 280.76 312.51 C 279.84 312.08 280.93 311.18 280.68 310.52 C 280.56 310.20 280.28 309.94 280.07 309.65 Z" fill="#f7d96a" fill-rule="nonzero" group-id="1,2" node-id="178" stroke="none" target-height="4.960022" target-width="3.2399902" target-x="279.84" target-y="307.99"></path><path d="M 292.34 312.65 C 292.65 312.48 293.11 312.38 293.25 312.11 C 293.50 311.64 292.37 310.77 293.52 310.55 C 294.08 310.45 294.90 310.74 295.32 311.15 C 296.13 311.91 294.82 312.12 294.73 312.69 C 294.67 313.06 294.66 313.43 294.63 313.80 C 293.87 313.42 293.11 313.03 292.34 312.65 Z" fill="#fbedb7" fill-rule="nonzero" group-id="1,2" node-id="180" stroke="none" target-height="3.3499756" target-width="3.7900085" target-x="292.34" target-y="310.45"></path><path d="M 286.57 440.38 C 285.83 441.27 284.31 439.81 283.51 441.10 C 283.23 441.55 282.53 440.73 282.67 440.47 C 283.13 439.58 284.12 439.36 285.01 439.33 C 285.54 439.32 286.45 439.06 286.57 440.38 Z" fill="#fdf6dc" fill-rule="nonzero" group-id="1,2" node-id="182" stroke="none" target-height="2.4899902" target-width="4.0400085" target-x="282.53" target-y="439.06"></path><path d="M 345.83 242.31 C 346.04 244.40 345.31 245.77 343.03 245.94 C 343.49 244.37 344.70 243.37 345.83 242.31 Z" fill="#fcf3e7" fill-rule="nonzero" group-id="1,2" node-id="184" stroke="none" target-height="3.630005" target-width="3.0100098" target-x="343.03" target-y="242.31"></path><path d="M 343.01 245.88 C 343.25 247.71 342.69 248.88 340.60 248.79 C 340.82 247.33 342.05 246.72 343.01 245.88 Z" fill="#fbecc6" fill-rule="nonzero" group-id="1,2" node-id="186" stroke="none" target-height="3" target-width="2.649994" target-x="340.6" target-y="245.88"></path><path d="M 260.07 264.30 C 258.94 266.77 257.76 265.04 256.60 264.34 C 257.76 264.62 258.90 263.04 260.07 264.30 Z" fill="#f9e79f" fill-rule="nonzero" group-id="1,2" node-id="188" stroke="none" target-height="3.7299805" target-width="3.4700012" target-x="256.6" target-y="263.04"></path><path d="M 231.85 289.65 C 230.66 289.00 230.09 287.88 229.60 286.70 C 231.65 286.69 231.47 288.38 231.85 289.65 Z" fill="#fae9a9" fill-rule="nonzero" group-id="1,2" node-id="190" stroke="none" target-height="2.9599915" target-width="2.25" target-x="229.6" target-y="286.69"></path><path d="M 444.01 168.77 C 445.95 169.41 446.94 171.53 449.07 171.96 C 449.80 172.11 449.38 173.11 449.40 173.73 C 449.51 174.37 449.19 174.85 448.79 175.27 C 443.52 180.81 438.82 186.88 433.42 192.30 C 432.80 192.92 432.16 193.48 431.29 193.70 C 430.80 193.83 430.50 193.37 430.08 193.28 C 430.00 193.84 430.45 194.30 430.41 194.86 C 430.40 195.25 430.28 195.60 430.10 195.95 C 429.45 197.20 427.25 196.71 427.32 197.00 C 427.70 198.56 426.73 199.27 425.94 200.24 C 419.91 207.57 413.22 214.32 406.71 221.19 C 398.87 229.46 391.27 237.95 383.40 246.20 C 374.63 255.41 365.35 264.18 357.31 274.10 C 355.59 276.22 353.50 278.12 350.83 279.15 C 350.03 279.16 349.47 278.57 348.76 278.35 C 345.29 277.24 345.29 277.25 345.95 273.76 C 348.51 268.80 352.60 265.18 356.76 261.65 C 357.65 260.89 358.56 260.33 358.86 259.13 C 358.98 258.67 359.38 258.34 359.66 257.95 C 361.12 255.88 364.69 256.34 364.97 252.39 C 365.16 249.68 368.43 247.74 370.66 245.82 C 372.87 243.92 374.48 241.55 376.45 239.47 C 378.43 237.38 380.27 235.16 382.30 233.15 C 387.25 228.24 392.06 223.20 396.69 217.98 C 398.99 215.39 399.00 215.40 402.66 216.31 C 401.36 215.25 400.69 214.12 401.66 213.06 C 403.66 210.89 405.03 207.63 409.11 208.53 C 407.80 207.14 408.50 206.00 409.25 204.93 C 411.52 201.69 414.32 198.95 417.45 196.56 C 418.29 195.92 419.20 195.37 419.83 194.51 C 425.57 186.70 432.62 180.08 439.38 173.20 C 440.87 171.67 442.75 170.54 444.01 168.77 Z" fill="#050202" fill-rule="nonzero" group-id="1,2" node-id="192" stroke="none" target-height="110.39" target-width="104.50998" target-x="345.29" target-y="168.77"></path><path d="M 444.01 168.77 C 444.24 172.33 440.66 172.87 438.91 174.71 C 434.98 178.82 431.11 182.99 427.09 187.02 C 424.48 189.64 422.59 192.85 419.93 195.30 C 417.18 197.83 414.26 200.18 411.65 202.90 C 410.77 203.82 410.02 204.76 409.45 205.85 C 409.13 206.46 407.98 206.84 408.63 207.73 C 409.24 208.56 409.87 206.89 410.64 207.57 C 410.36 208.65 409.63 209.11 408.57 208.96 C 404.83 208.43 403.69 211.88 401.87 213.80 C 400.49 215.26 402.82 215.16 404.17 215.23 C 402.90 216.58 402.26 218.35 400.36 216.12 C 399.65 215.29 398.72 216.37 398.14 217.18 C 394.36 222.44 389.56 226.82 385.22 231.56 C 381.98 235.10 378.47 238.47 375.16 242.01 C 372.27 245.10 369.32 248.12 366.36 251.14 C 365.29 252.24 364.72 253.38 365.18 254.99 C 365.61 256.49 364.62 257.39 363.33 256.97 C 360.57 256.06 359.34 258.58 359.25 259.72 C 359.10 261.56 358.02 261.57 357.08 262.28 C 355.36 263.58 353.67 264.99 352.22 266.58 C 350.19 268.82 348.39 271.26 346.50 273.62 C 345.44 274.49 344.40 276.09 342.93 275.19 C 341.28 274.18 343.12 272.90 343.28 271.72 C 343.33 271.35 343.48 271.00 343.59 270.64 C 345.24 267.32 348.42 265.23 350.46 262.22 C 350.77 261.76 351.26 261.40 351.65 260.98 C 353.72 258.80 354.20 255.47 357.68 254.13 C 359.35 253.49 360.97 251.21 362.04 249.34 C 364.13 245.68 367.52 243.30 370.17 240.21 C 372.78 237.17 375.66 234.35 377.97 231.04 C 380.38 227.59 383.56 224.81 386.43 221.77 C 390.18 217.80 393.75 213.66 396.94 209.21 C 397.61 208.28 398.18 207.24 399.05 206.48 C 400.41 205.30 400.58 203.83 400.70 202.11 C 400.88 199.37 400.06 197.84 397.18 197.77 C 399.26 195.97 400.18 193.08 402.81 191.79 C 404.67 193.87 404.36 196.61 405.22 199.00 C 405.53 197.37 406.27 196.31 408.29 195.70 C 410.42 195.06 411.54 192.59 413.13 190.96 C 413.86 190.22 414.38 189.42 413.83 188.33 C 413.63 186.35 414.26 185.17 416.50 185.69 C 417.81 185.99 418.47 185.11 419.08 184.32 C 422.68 179.64 426.86 175.43 430.27 170.59 C 430.71 169.96 431.17 169.36 431.30 168.58 C 431.51 167.38 431.40 165.94 433.47 166.76 C 434.17 167.04 434.68 166.00 435.17 165.43 C 436.03 164.44 436.68 163.18 438.18 162.98 C 440.73 164.29 442.55 166.35 444.01 168.77 Z" fill="#ffffff" fill-rule="nonzero" group-id="1,2" node-id="194" stroke="none" target-height="113.11" target-width="102.95999" target-x="341.28" target-y="162.98"></path><path d="M 351.18 278.82 C 359.46 271.18 366.85 262.67 374.58 254.51 C 383.29 245.32 391.97 236.07 400.55 226.75 C 407.66 219.03 414.44 210.95 422.14 203.77 C 423.80 202.22 424.49 199.94 426.51 198.60 C 427.84 197.71 426.06 196.26 426.23 194.45 C 427.64 196.65 428.94 197.33 430.04 194.79 C 430.11 194.14 430.50 193.75 431.06 193.48 C 436.21 188.84 440.57 183.49 445.09 178.27 C 446.46 176.70 447.96 175.24 449.40 173.73 C 451.27 174.59 453.31 175.28 453.67 177.74 C 452.97 180.42 450.59 181.63 448.81 183.38 C 448.13 184.01 447.48 184.67 446.84 185.35 C 444.32 188.82 441.24 191.83 438.68 195.28 C 436.74 197.90 433.68 199.41 431.79 202.11 C 430.15 204.45 427.83 206.21 426.20 208.56 C 425.27 209.38 423.89 209.72 423.53 211.14 C 420.84 214.04 418.71 217.43 415.61 220.01 C 413.12 222.08 410.92 224.52 408.85 227.04 C 406.51 229.90 404.38 232.89 401.51 235.36 C 397.44 238.85 394.39 243.35 390.76 247.29 C 387.93 250.36 385.05 253.38 382.25 256.46 C 378.28 260.84 374.66 265.59 370.59 269.86 C 368.20 272.36 366.48 275.36 363.89 277.68 C 361.43 279.89 359.60 282.75 357.10 284.95 C 356.67 285.14 356.07 285.43 355.77 285.12 C 354.00 283.21 351.63 281.70 351.18 278.82 Z" fill="#ffffff" fill-rule="nonzero" group-id="1,2" node-id="196" stroke="none" target-height="111.7" target-width="102.49002" target-x="351.18" target-y="173.73"></path><path d="M 425.54 208.48 C 428.68 204.75 431.75 200.97 435.29 197.57 C 438.55 194.43 441.35 190.80 444.35 187.37 C 445.10 186.51 445.83 185.63 446.56 184.76 C 447.40 184.31 448.16 184.79 448.97 185.00 C 448.74 184.34 447.92 183.92 448.30 183.09 C 450.09 181.31 451.88 179.54 453.67 177.76 C 456.37 177.19 456.64 179.98 458.05 181.12 C 459.01 181.90 457.33 182.82 456.79 183.52 C 453.85 187.33 449.58 189.90 446.76 193.82 C 444.50 196.96 441.36 199.21 438.90 202.12 C 438.47 202.63 437.77 203.04 437.60 203.61 C 437.10 205.26 435.89 206.07 434.64 207.13 C 429.11 211.82 424.81 217.74 419.61 222.74 C 415.57 226.62 411.57 230.59 408.17 234.93 C 402.91 241.64 396.07 246.81 391.06 253.73 C 389.72 255.58 388.31 257.73 385.93 258.77 C 385.24 259.07 384.69 259.89 384.27 260.59 C 381.31 265.55 376.68 269.04 373.07 273.44 C 370.59 276.46 367.73 279.19 365.07 282.08 C 363.04 284.29 360.32 286.11 357.17 286.83 C 355.97 286.42 356.36 285.57 356.61 284.77 C 357.96 282.42 360.09 280.61 361.85 278.70 C 364.09 276.28 365.59 273.18 367.99 271.20 C 372.45 267.52 375.42 262.68 379.33 258.61 C 382.27 255.55 385.18 252.46 388.02 249.30 C 390.92 246.09 393.68 242.76 396.58 239.54 C 398.70 237.19 400.59 234.63 403.41 232.90 C 404.66 232.14 405.32 230.45 406.29 229.21 C 409.18 225.54 412.25 222.02 415.68 218.88 C 418.39 216.39 420.51 213.41 423.06 210.81 C 423.58 209.85 424.25 209.22 425.47 209.55 C 425.74 209.64 425.77 209.52 425.54 208.48 Z" fill="#060303" fill-rule="nonzero" group-id="1,2" node-id="198" stroke="none" target-height="109.639984" target-width="103.04001" target-x="355.97" target-y="177.19"></path><path d="M 397.18 197.75 C 398.45 198.40 399.85 196.31 400.93 197.76 C 401.82 198.95 401.23 200.54 401.38 201.94 C 401.58 203.77 400.96 205.12 399.79 206.71 C 396.10 211.71 392.19 216.55 388.05 221.13 C 385.98 223.43 383.71 225.77 381.33 227.90 C 379.24 229.77 377.90 232.47 375.88 234.56 C 372.62 237.94 370.41 242.32 366.04 244.66 C 364.78 245.33 364.99 247.07 364.11 248.09 C 361.89 250.67 359.67 253.23 357.44 255.80 C 357.25 256.01 356.91 256.17 356.86 256.41 C 356.45 258.20 355.30 253.19 355.16 256.60 C 355.11 257.72 354.25 258.50 353.76 259.20 C 351.81 261.98 349.46 264.47 347.24 267.06 C 346.20 268.27 345.13 269.44 344.07 270.62 C 339.60 269.98 339.07 269.47 339.13 265.90 C 340.13 264.97 340.38 263.52 341.39 262.59 C 347.71 254.66 354.36 247.02 361.38 239.70 C 361.87 238.32 364.26 238.43 363.95 236.42 C 364.33 234.19 367.24 233.82 367.56 231.54 C 367.51 230.88 367.78 230.43 368.42 230.22 C 370.05 228.79 371.68 227.35 373.31 225.92 C 374.52 226.04 373.49 224.77 374.16 224.56 C 378.44 219.68 382.03 214.20 387.00 209.90 C 388.78 208.36 390.37 206.59 391.33 204.36 C 393.48 202.98 394.05 204.56 394.69 206.02 C 396.14 204.30 392.75 202.79 394.31 200.97 C 395.23 199.87 396.58 199.14 397.18 197.75 Z" fill="#050202" fill-rule="nonzero" group-id="1,2" node-id="200" stroke="none" target-height="74.31" target-width="62.75" target-x="339.07" target-y="196.31"></path><path d="M 339.11 266.24 C 339.51 269.12 342.39 269.19 344.07 270.61 C 344.14 271.25 344.28 271.83 343.99 272.52 C 343.67 273.28 342.00 273.82 343.08 274.77 C 343.99 275.57 344.56 274.03 345.38 273.74 C 345.72 273.62 346.12 273.65 346.49 273.61 C 346.41 274.55 346.47 275.52 346.22 276.41 C 346.00 277.22 346.44 277.75 346.90 277.47 C 348.93 276.25 349.72 278.49 351.16 278.83 C 352.98 280.81 354.23 283.30 356.59 284.79 C 356.78 285.48 356.97 286.17 357.15 286.85 C 348.62 289.62 340.76 294.09 332.15 296.65 C 331.97 296.70 331.80 296.80 331.63 296.88 C 330.74 297.28 330.72 299.37 329.10 298.28 C 327.53 297.22 328.96 295.99 329.20 294.96 C 331.04 287.01 332.85 279.04 335.11 271.20 C 335.60 269.49 335.25 266.64 338.17 266.14 C 338.54 265.80 338.86 265.70 339.11 266.24 Z" fill="#434a9d" fill-rule="nonzero" group-id="1,2" node-id="202" stroke="none" target-height="33.669983" target-width="29.619995" target-x="327.53" target-y="265.7"></path><path d="M 438.19 162.96 C 437.33 164.09 436.62 165.37 435.58 166.29 C 434.86 166.92 434.12 168.64 432.68 167.18 C 432.32 166.81 432.09 167.14 432.12 167.26 C 432.70 170.81 429.47 172.32 427.95 174.63 C 425.57 178.25 422.46 181.39 419.66 184.73 C 418.33 186.31 418.30 186.11 415.96 185.81 C 415.12 185.70 413.77 186.67 414.48 188.22 C 415.10 189.40 413.63 190.04 413.74 191.09 C 412.33 192.75 410.93 194.41 409.52 196.07 C 409.46 196.14 409.39 196.28 409.33 196.28 C 406.11 196.07 406.03 199.20 404.44 200.94 C 404.98 197.59 403.06 194.83 402.81 191.76 C 406.86 187.14 410.91 182.53 414.95 177.91 C 415.58 177.83 416.60 178.18 416.11 176.87 C 421.51 171.62 425.68 165.31 430.80 159.80 C 432.85 157.59 434.16 158.00 435.78 159.78 C 436.67 160.77 437.40 161.90 438.19 162.96 Z" fill="#060404" fill-rule="nonzero" group-id="1,2" node-id="204" stroke="none" target-height="43.350006" target-width="35.380005" target-x="402.81" target-y="157.59"></path><path d="M 394.32 200.97 C 394.31 201.32 394.14 201.87 394.31 202.01 C 396.96 204.21 395.56 206.34 394.18 208.70 C 392.74 207.50 395.51 203.49 391.35 204.37 C 391.76 202.73 393.01 201.83 394.32 200.97 Z" fill="#dedbdc" fill-rule="nonzero" group-id="1,2" node-id="206" stroke="none" target-height="7.7299957" target-width="5.6099854" target-x="391.35" target-y="200.97"></path><path d="M 339.11 266.24 C 338.80 266.21 338.49 266.17 338.19 266.14 C 337.73 265.85 337.03 266.30 336.69 265.65 C 336.93 265.57 337.18 265.49 337.42 265.42 C 338.13 264.84 338.09 263.91 338.46 263.17 C 338.70 259.20 340.50 263.22 341.39 262.59 C 341.70 264.47 340.77 265.58 339.11 266.24 Z" fill="#ede0d6" fill-rule="nonzero" group-id="1,2" node-id="208" stroke="none" target-height="7.0999756" target-width="5.01001" target-x="336.69" target-y="259.2"></path><path d="M 363.96 236.42 C 365.99 239.77 362.52 238.82 361.39 239.70 C 361.62 237.35 362.56 236.17 363.96 236.42 Z" fill="#e3dfe1" fill-rule="nonzero" group-id="1,2" node-id="210" stroke="none" target-height="3.600006" target-width="4.5999756" target-x="361.39" target-y="236.17"></path><path d="M 374.17 224.56 C 374.47 225.41 374.76 226.26 375.07 227.14 C 373.76 227.70 373.90 226.30 373.32 225.92 C 372.75 224.79 372.73 223.66 373.22 222.37 C 374.07 223.04 373.04 224.23 374.17 224.56 Z" fill="#efeaed" fill-rule="nonzero" group-id="1,2" node-id="212" stroke="none" target-height="5.330002" target-width="2.3399963" target-x="372.73" target-y="222.37"></path><path d="M 338.46 263.16 C 338.67 263.70 339.84 263.79 339.33 264.60 C 338.95 265.20 338.19 265.48 337.41 265.42 C 337.37 264.48 336.82 263.31 338.46 263.16 Z" fill="#f2c578" fill-rule="nonzero" group-id="1,2" node-id="214" stroke="none" target-height="2.3200073" target-width="3.019989" target-x="336.82" target-y="263.16"></path><path d="M 368.44 230.22 C 368.34 230.78 368.08 231.24 367.58 231.54 C 367.43 231.21 367.12 230.85 367.18 230.56 C 367.30 229.90 365.50 229.55 366.81 228.90 C 367.84 228.38 368.16 229.44 368.44 230.22 Z" fill="#f7ede9" fill-rule="nonzero" group-id="1,2" node-id="216" stroke="none" target-height="3.1599884" target-width="2.9400024" target-x="365.5" target-y="228.38"></path><path d="M 416.11 176.89 C 416.72 176.92 417.71 176.80 417.31 177.76 C 416.80 178.96 415.83 179.04 414.96 177.94 C 415.34 177.58 415.73 177.24 416.11 176.89 Z" fill="#c9c8c7" fill-rule="nonzero" group-id="1,2" node-id="218" stroke="none" target-height="2.2399902" target-width="2.75" target-x="414.96" target-y="176.8"></path><path d="M 148.68 198.91 C 148.82 199.76 148.24 199.81 147.66 199.80 C 146.82 199.78 146.22 199.40 146.16 198.50 C 146.11 197.80 146.58 197.54 147.21 197.51 C 148.18 197.48 148.42 198.21 148.68 198.91 Z" fill="#726fb2" fill-rule="nonzero" group-id="1,2" node-id="220" stroke="none" target-height="2.3300018" target-width="2.7100067" target-x="146.11" target-y="197.48"></path><path d="M 166.91 204.25 C 166.27 204.18 165.84 203.80 165.76 203.18 C 165.68 202.57 165.96 201.95 166.63 201.98 C 167.37 202.01 167.79 202.63 167.84 203.35 C 167.88 203.91 167.39 204.11 166.91 204.25 Z" fill="#b7b3d9" fill-rule="nonzero" group-id="1,2" node-id="222" stroke="none" target-height="2.300003" target-width="2.2000122" target-x="165.68" target-y="201.95"></path><path d="M 174.87 219.66 C 174.84 219.79 174.94 220.43 174.29 220.42 C 173.20 220.41 173.23 219.53 173.21 218.76 C 173.20 218.25 173.36 217.67 173.95 217.79 C 174.67 217.94 174.99 218.57 174.87 219.66 Z" fill="#a9a4d0" fill-rule="nonzero" group-id="1,2" node-id="224" stroke="none" target-height="2.7599945" target-width="1.7900085" target-x="173.2" target-y="217.67"></path><path d="M 283.67 396.72 C 282.97 394.35 282.97 394.35 285.81 393.61 C 285.01 394.78 284.34 395.75 283.68 396.73 C 283.69 396.72 283.67 396.72 283.67 396.72 Z" fill="#f5c520" fill-rule="nonzero" group-id="1,2" node-id="226" stroke="none" target-height="3.1200256" target-width="2.8399963" target-x="282.97" target-y="393.61"></path><path d="M 296.44 296.47 C 296.45 296.92 296.45 297.36 296.46 297.81 C 295.24 300.59 292.87 302.81 292.47 306.00 C 292.42 306.43 292.50 306.73 292.84 306.97 C 292.95 307.44 292.87 307.72 292.30 307.51 C 292.14 307.50 291.98 307.48 291.82 307.45 C 290.64 306.60 291.76 304.56 290.03 303.99 C 290.03 303.99 290.05 304.00 290.05 304.00 C 290.67 302.35 290.48 300.64 290.46 298.94 C 290.45 298.01 290.40 297.20 291.22 296.36 C 294.76 292.73 293.79 293.35 296.44 296.47 Z" fill="#f5c726" fill-rule="nonzero" group-id="1,2" node-id="228" stroke="none" target-height="14.98999" target-width="6.4299927" target-x="290.03" target-y="292.73"></path><path d="M 276.11 281.62 C 276.23 280.96 276.37 280.26 277.17 280.12 C 277.82 280.01 277.85 280.62 278.01 281.04 C 277.72 281.71 278.81 282.65 277.81 283.07 C 276.58 283.58 276.73 282.06 276.11 281.62 Z" fill="#f6d55a" fill-rule="nonzero" group-id="1,2" node-id="230" stroke="none" target-height="3.5699768" target-width="2.7000122" target-x="276.11" target-y="280.01"></path><path d="M 292.30 307.51 C 292.48 307.33 292.66 307.15 292.84 306.97 C 293.58 306.67 294.35 305.92 295.05 306.93 C 295.35 307.37 295.07 307.81 294.62 308.09 C 293.64 308.72 292.86 308.56 292.30 307.51 Z" fill="#fae59a" fill-rule="nonzero" group-id="1,2" node-id="232" stroke="none" target-height="2.7999878" target-width="3.0500183" target-x="292.3" target-y="305.92"></path><path d="M 290.04 303.99 C 292.82 304.01 291.28 306.27 291.83 307.45 C 289.69 307.09 291.07 304.92 290.04 303.99 Z" fill="#fef8e1" fill-rule="nonzero" group-id="1,2" node-id="234" stroke="none" target-height="3.460022" target-width="3.130005" target-x="289.69" target-y="303.99"></path><path d="M 255.50 268.85 C 255.39 268.37 254.58 267.71 255.30 267.47 C 256.39 267.11 256.77 268.25 257.27 268.99 C 256.51 271.20 256.07 269.16 255.50 268.85 Z" fill="#f5c929" fill-rule="nonzero" group-id="1,2" node-id="236" stroke="none" target-height="4.090027" target-width="2.6899872" target-x="254.58" target-y="267.11"></path><path d="M 359.24 263.31 C 360.52 263.86 360.63 264.67 360.67 265.55 C 360.72 266.60 360.19 267.35 359.47 268.00 C 359.31 268.14 358.79 268.17 358.73 268.07 C 358.20 267.24 358.62 266.50 358.94 265.69 C 359.21 265.03 359.14 264.22 359.24 263.31 Z" fill="#c7c5c4" fill-rule="nonzero" group-id="1,2" node-id="238" stroke="none" target-height="4.860016" target-width="2.519989" target-x="358.2" target-y="263.31"></path><path d="M 405.39 216.22 C 405.95 216.27 406.74 216.25 406.75 216.94 C 406.77 217.84 405.84 218.08 405.14 218.26 C 404.42 218.45 404.14 217.96 404.12 217.28 C 404.10 216.36 404.57 216.10 405.39 216.22 Z" fill="#e6e6e6" fill-rule="nonzero" group-id="1,2" node-id="240" stroke="none" target-height="2.3499908" target-width="2.669983" target-x="404.1" target-y="216.1"></path><path d="M 380.00 239.97 C 381.03 240.62 382.05 241.30 382.02 242.64 C 382.01 242.83 381.35 243.24 381.21 243.16 C 379.99 242.49 380.13 241.20 380.00 239.97 Z" fill="#c0bebd" fill-rule="nonzero" group-id="1,2" node-id="242" stroke="none" target-height="3.2700043" target-width="2.0599976" target-x="379.99" target-y="239.97"></path><path d="M 398.18 225.03 C 397.61 224.98 397.33 224.59 397.32 224.11 C 397.29 223.40 397.89 223.13 398.43 223.05 C 398.96 222.96 399.28 223.44 399.28 223.92 C 399.28 224.59 398.72 224.84 398.18 225.03 Z" fill="#989493" fill-rule="nonzero" group-id="1,2" node-id="244" stroke="none" target-height="2.069992" target-width="1.9899902" target-x="397.29" target-y="222.96"></path><path d="M 431.06 193.48 C 431.15 194.25 430.54 194.48 430.04 194.79 C 429.91 194.55 429.82 194.26 429.63 194.07 C 428.84 193.25 428.98 192.50 429.96 192.10 C 431.66 191.39 429.97 193.58 431.06 193.48 Z" fill="#514f4f" fill-rule="nonzero" group-id="1,2" node-id="246" stroke="none" target-height="3.399994" target-width="2.8200073" target-x="428.84" target-y="191.39"></path><path d="M 413.74 191.10 C 411.10 189.40 415.15 189.42 414.48 188.23 C 415.50 189.51 414.48 190.27 413.74 191.10 Z" fill="#696766" fill-rule="nonzero" group-id="1,2" node-id="248" stroke="none" target-height="2.8700104" target-width="4.399994" target-x="411.1" target-y="188.23"></path><path d="M 425.54 208.48 C 426.57 208.77 427.80 209.34 427.28 210.46 C 426.65 211.84 425.68 210.57 425.06 210.09 C 423.89 209.19 423.83 210.92 423.06 210.82 C 423.15 209.27 424.26 208.78 425.54 208.48 Z" fill="#c8c6c5" fill-rule="nonzero" group-id="1,2" node-id="250" stroke="none" target-height="3.3600006" target-width="4.73999" target-x="423.06" target-y="208.48"></path><path d="M 448.30 183.08 C 448.50 184.29 449.89 184.32 450.37 185.21 C 448.85 187.30 447.86 184.74 446.55 184.75 C 447.13 184.20 447.72 183.64 448.30 183.08 Z" fill="#8d8a89" fill-rule="nonzero" group-id="1,2" node-id="252" stroke="none" target-height="4.220001" target-width="3.8200073" target-x="446.55" target-y="183.08"></path><path d="M 389.15 216.16 C 389.11 216.86 388.65 217.40 388.32 217.16 C 387.41 216.50 385.78 216.62 385.66 215.14 C 385.58 214.09 386.88 213.74 387.44 213.79 C 388.77 213.91 388.32 215.62 389.15 216.16 Z" fill="#bfbdbd" fill-rule="nonzero" group-id="1,2" node-id="254" stroke="none" target-height="3.6599884" target-width="3.5700073" target-x="385.58" target-y="213.74"></path><path d="M 359.82 242.67 C 360.53 242.08 361.19 241.39 361.97 242.44 C 362.17 242.70 362.37 243.22 361.95 243.46 C 360.99 244.00 360.44 243.29 359.82 242.67 Z" fill="#b7b5b4" fill-rule="nonzero" group-id="1,2" node-id="256" stroke="none" target-height="2.6100006" target-width="2.5499878" target-x="359.82" target-y="241.39"></path></g></g></svg>